<svg xmlns="http://www.w3.org/2000/svg" viewBox="0 0 1600 1000" width="1600" height="1000" role="img" aria-label="Feature importance">
<rect width="1600" height="1000" fill="#ffffff"/>
<g stroke="#e7e5e0"><line x1="140" y1="710.0" x2="1520" y2="710.0"/><line x1="140" y1="560.0" x2="1520" y2="560.0"/><line x1="140" y1="410.0" x2="1520" y2="410.0"/><line x1="140" y1="260.0" x2="1520" y2="260.0"/><line x1="140" y1="110.0" x2="1520" y2="110.0"/></g>
<g stroke="#111" stroke-width="1.5"><line x1="140" y1="110" x2="140" y2="860"/><line x1="140" y1="860" x2="1520" y2="860"/><line x1="140.0" y1="860" x2="140.0" y2="870"/><line x1="130" y1="860.0" x2="140" y2="860.0"/><line x1="278.0" y1="860" x2="278.0" y2="870"/><line x1="130" y1="785.0" x2="140" y2="785.0"/><line x1="416.0" y1="860" x2="416.0" y2="870"/><line x1="130" y1="710.0" x2="140" y2="710.0"/><line x1="554.0" y1="860" x2="554.0" y2="870"/><line x1="130" y1="635.0" x2="140" y2="635.0"/><line x1="692.0" y1="860" x2="692.0" y2="870"/><line x1="130" y1="560.0" x2="140" y2="560.0"/><line x1="830.0" y1="860" x2="830.0" y2="870"/><line x1="130" y1="485.0" x2="140" y2="485.0"/><line x1="968.0" y1="860" x2="968.0" y2="870"/><line x1="130" y1="410.0" x2="140" y2="410.0"/><line x1="1106.0" y1="860" x2="1106.0" y2="870"/><line x1="130" y1="335.0" x2="140" y2="335.0"/><line x1="1244.0" y1="860" x2="1244.0" y2="870"/><line x1="130" y1="260.0" x2="140" y2="260.0"/><line x1="1382.0" y1="860" x2="1382.0" y2="870"/><line x1="130" y1="185.0" x2="140" y2="185.0"/><line x1="1520.0" y1="860" x2="1520.0" y2="870"/><line x1="130" y1="110.0" x2="140" y2="110.0"/></g>
<rect x="171.1" y="245.0" width="110.4" height="615.0" fill="#ff5a1f" fill-opacity="1"/><rect x="343.6" y="380.0" width="110.4" height="480.0" fill="#111" fill-opacity="0.75"/><rect x="516.0" y="477.5" width="110.4" height="382.5" fill="#111" fill-opacity="0.75"/><rect x="688.5" y="575.0" width="110.4" height="285.0" fill="#111" fill-opacity="0.75"/><rect x="861.0" y="642.5" width="110.4" height="217.5" fill="#111" fill-opacity="0.75"/><rect x="1033.5" y="702.5" width="110.4" height="157.5" fill="#111" fill-opacity="0.75"/><rect x="1206.0" y="755.0" width="110.4" height="105.0" fill="#111" fill-opacity="0.75"/><rect x="1378.5" y="792.5" width="110.4" height="67.5" fill="#111" fill-opacity="0.75"/>
<g font-family="ui-monospace, Menlo, monospace" font-size="20" fill="#111" letter-spacing="1.5">
<text x="40" y="56">FIG. 7.3</text><text x="1560" y="56" text-anchor="end">FEATURE IMPORTANCE</text>
<text x="1560" y="964" text-anchor="end" fill="#8a8a8a">PLACEHOLDER — REPLACE WITH YOUR PLOT</text>
</g></svg>